<mxfile host="app.diagrams.net" modified="2023-10-28T16:43:22.079Z" agent="Mozilla/5.0 (Windows NT 10.0; Win64; x64; rv:109.0) Gecko/20100101 Firefox/119.0" etag="DHOa3LUALLriI8fk62L-" version="22.0.8" type="device">
  <diagram name="Page-1" id="e7e014a7-5840-1c2e-5031-d8a46d1fe8dd">
    <mxGraphModel dx="1512" dy="823" grid="1" gridSize="10" guides="1" tooltips="1" connect="1" arrows="1" fold="1" page="1" pageScale="1" pageWidth="1169" pageHeight="826" background="none" math="0" shadow="0">
      <root>
        <mxCell id="0" />
        <mxCell id="1" parent="0" />
        <mxCell id="-MFiiSWxwE50mNGu5jro-47" value="Person" style="rounded=0;whiteSpace=wrap;html=1;" vertex="1" parent="1">
          <mxGeometry x="565" y="80" width="120" height="40" as="geometry" />
        </mxCell>
        <mxCell id="-MFiiSWxwE50mNGu5jro-48" value="d" style="ellipse;whiteSpace=wrap;html=1;aspect=fixed;" vertex="1" parent="1">
          <mxGeometry x="610" y="180" width="30" height="30" as="geometry" />
        </mxCell>
        <mxCell id="-MFiiSWxwE50mNGu5jro-49" value="" style="endArrow=none;html=1;rounded=0;entryX=0.5;entryY=1;entryDx=0;entryDy=0;exitX=0.5;exitY=0;exitDx=0;exitDy=0;" edge="1" parent="1" source="-MFiiSWxwE50mNGu5jro-48" target="-MFiiSWxwE50mNGu5jro-47">
          <mxGeometry width="50" height="50" relative="1" as="geometry">
            <mxPoint x="625" y="190" as="sourcePoint" />
            <mxPoint x="624.76" y="140" as="targetPoint" />
            <Array as="points" />
          </mxGeometry>
        </mxCell>
        <mxCell id="-MFiiSWxwE50mNGu5jro-50" value="Student" style="rounded=0;whiteSpace=wrap;html=1;" vertex="1" parent="1">
          <mxGeometry x="445" y="240" width="120" height="40" as="geometry" />
        </mxCell>
        <mxCell id="-MFiiSWxwE50mNGu5jro-51" value="" style="shape=requiredInterface;html=1;verticalLabelPosition=bottom;sketch=0;rotation=-200;" vertex="1" parent="1">
          <mxGeometry x="555" y="210" width="10" height="20" as="geometry" />
        </mxCell>
        <mxCell id="-MFiiSWxwE50mNGu5jro-52" value="" style="endArrow=none;html=1;rounded=0;entryX=0.007;entryY=0.7;entryDx=0;entryDy=0;exitX=0.5;exitY=0;exitDx=0;exitDy=0;entryPerimeter=0;" edge="1" parent="1" source="-MFiiSWxwE50mNGu5jro-50">
          <mxGeometry width="50" height="50" relative="1" as="geometry">
            <mxPoint x="454.78999999999996" y="249" as="sourcePoint" />
            <mxPoint x="610" y="200" as="targetPoint" />
            <Array as="points" />
          </mxGeometry>
        </mxCell>
        <mxCell id="-MFiiSWxwE50mNGu5jro-53" value="" style="shape=requiredInterface;html=1;verticalLabelPosition=bottom;sketch=0;rotation=45;" vertex="1" parent="1">
          <mxGeometry x="685" y="210" width="10" height="20" as="geometry" />
        </mxCell>
        <mxCell id="-MFiiSWxwE50mNGu5jro-54" value="" style="endArrow=none;html=1;rounded=0;entryX=0.895;entryY=0.688;entryDx=0;entryDy=0;exitX=0.5;exitY=0;exitDx=0;exitDy=0;entryPerimeter=0;" edge="1" parent="1" source="-MFiiSWxwE50mNGu5jro-55" target="-MFiiSWxwE50mNGu5jro-48">
          <mxGeometry width="50" height="50" relative="1" as="geometry">
            <mxPoint x="695" y="180" as="sourcePoint" />
            <mxPoint x="850.21" y="131" as="targetPoint" />
            <Array as="points" />
          </mxGeometry>
        </mxCell>
        <mxCell id="-MFiiSWxwE50mNGu5jro-55" value="Employee" style="rounded=0;whiteSpace=wrap;html=1;" vertex="1" parent="1">
          <mxGeometry x="685" y="240" width="120" height="40" as="geometry" />
        </mxCell>
        <mxCell id="-MFiiSWxwE50mNGu5jro-56" value="Salary" style="ellipse;whiteSpace=wrap;html=1;" vertex="1" parent="1">
          <mxGeometry x="765" y="170" width="60" height="30" as="geometry" />
        </mxCell>
        <mxCell id="-MFiiSWxwE50mNGu5jro-57" value="" style="endArrow=none;html=1;rounded=0;entryX=0.5;entryY=1;entryDx=0;entryDy=0;exitX=0.661;exitY=-0.001;exitDx=0;exitDy=0;exitPerimeter=0;" edge="1" parent="1" source="-MFiiSWxwE50mNGu5jro-55" target="-MFiiSWxwE50mNGu5jro-56">
          <mxGeometry width="50" height="50" relative="1" as="geometry">
            <mxPoint x="895" y="270" as="sourcePoint" />
            <mxPoint x="945" y="220" as="targetPoint" />
          </mxGeometry>
        </mxCell>
        <mxCell id="-MFiiSWxwE50mNGu5jro-58" value="Parent" style="shape=ext;margin=3;double=1;whiteSpace=wrap;html=1;align=center;" vertex="1" parent="1">
          <mxGeometry x="250" y="70" width="120" height="40" as="geometry" />
        </mxCell>
        <mxCell id="-MFiiSWxwE50mNGu5jro-60" value="Has" style="shape=rhombus;double=1;perimeter=rhombusPerimeter;whiteSpace=wrap;html=1;align=center;" vertex="1" parent="1">
          <mxGeometry x="390" y="150" width="60" height="60" as="geometry" />
        </mxCell>
        <mxCell id="-MFiiSWxwE50mNGu5jro-61" value="Attend" style="shape=rhombus;html=1;dashed=0;whiteSpace=wrap;perimeter=rhombusPerimeter;" vertex="1" parent="1">
          <mxGeometry x="280" y="313" width="60" height="50" as="geometry" />
        </mxCell>
        <mxCell id="-MFiiSWxwE50mNGu5jro-62" value="" style="endArrow=none;html=1;rounded=0;entryX=0.5;entryY=1;entryDx=0;entryDy=0;exitX=0.5;exitY=0;exitDx=0;exitDy=0;" edge="1" parent="1" source="-MFiiSWxwE50mNGu5jro-50" target="-MFiiSWxwE50mNGu5jro-60">
          <mxGeometry width="50" height="50" relative="1" as="geometry">
            <mxPoint x="330" y="280" as="sourcePoint" />
            <mxPoint x="380" y="230" as="targetPoint" />
          </mxGeometry>
        </mxCell>
        <mxCell id="-MFiiSWxwE50mNGu5jro-63" value="" style="endArrow=none;html=1;rounded=0;entryX=0.5;entryY=1;entryDx=0;entryDy=0;exitX=0.5;exitY=0;exitDx=0;exitDy=0;" edge="1" parent="1" source="-MFiiSWxwE50mNGu5jro-60" target="-MFiiSWxwE50mNGu5jro-58">
          <mxGeometry width="50" height="50" relative="1" as="geometry">
            <mxPoint x="485" y="160" as="sourcePoint" />
            <mxPoint x="400" y="130" as="targetPoint" />
          </mxGeometry>
        </mxCell>
        <mxCell id="-MFiiSWxwE50mNGu5jro-67" value="Teacher" style="rounded=0;whiteSpace=wrap;html=1;" vertex="1" parent="1">
          <mxGeometry x="545" y="393" width="120" height="40" as="geometry" />
        </mxCell>
        <mxCell id="-MFiiSWxwE50mNGu5jro-68" value="Administrive Staff" style="rounded=0;whiteSpace=wrap;html=1;" vertex="1" parent="1">
          <mxGeometry x="685" y="393" width="120" height="40" as="geometry" />
        </mxCell>
        <mxCell id="-MFiiSWxwE50mNGu5jro-69" value="Cleaning Staff" style="rounded=0;whiteSpace=wrap;html=1;" vertex="1" parent="1">
          <mxGeometry x="825" y="393" width="120" height="40" as="geometry" />
        </mxCell>
        <mxCell id="-MFiiSWxwE50mNGu5jro-72" value="&lt;u&gt;ID&lt;/u&gt;" style="ellipse;whiteSpace=wrap;html=1;" vertex="1" parent="1">
          <mxGeometry x="840" y="205" width="60" height="30" as="geometry" />
        </mxCell>
        <mxCell id="-MFiiSWxwE50mNGu5jro-73" value="" style="endArrow=none;html=1;rounded=0;entryX=0.5;entryY=1;entryDx=0;entryDy=0;exitX=1;exitY=0.5;exitDx=0;exitDy=0;" edge="1" parent="1" source="-MFiiSWxwE50mNGu5jro-55" target="-MFiiSWxwE50mNGu5jro-72">
          <mxGeometry width="50" height="50" relative="1" as="geometry">
            <mxPoint x="774" y="250" as="sourcePoint" />
            <mxPoint x="805" y="210" as="targetPoint" />
          </mxGeometry>
        </mxCell>
        <mxCell id="-MFiiSWxwE50mNGu5jro-74" value="d" style="ellipse;whiteSpace=wrap;html=1;aspect=fixed;" vertex="1" parent="1">
          <mxGeometry x="730" y="323" width="30" height="30" as="geometry" />
        </mxCell>
        <mxCell id="-MFiiSWxwE50mNGu5jro-75" value="" style="endArrow=none;html=1;rounded=0;entryX=0.5;entryY=1;entryDx=0;entryDy=0;exitX=0.5;exitY=0;exitDx=0;exitDy=0;" edge="1" parent="1" source="-MFiiSWxwE50mNGu5jro-74">
          <mxGeometry width="50" height="50" relative="1" as="geometry">
            <mxPoint x="744.6" y="340" as="sourcePoint" />
            <mxPoint x="744.6" y="280" as="targetPoint" />
            <Array as="points" />
          </mxGeometry>
        </mxCell>
        <mxCell id="-MFiiSWxwE50mNGu5jro-76" value="" style="endArrow=none;html=1;rounded=0;entryX=0.5;entryY=0;entryDx=0;entryDy=0;exitX=0.067;exitY=0.759;exitDx=0;exitDy=0;exitPerimeter=0;" edge="1" parent="1" source="-MFiiSWxwE50mNGu5jro-74" target="-MFiiSWxwE50mNGu5jro-67">
          <mxGeometry width="50" height="50" relative="1" as="geometry">
            <mxPoint x="755" y="333" as="sourcePoint" />
            <mxPoint x="754.6" y="290" as="targetPoint" />
            <Array as="points" />
          </mxGeometry>
        </mxCell>
        <mxCell id="-MFiiSWxwE50mNGu5jro-77" value="" style="endArrow=none;html=1;rounded=0;entryX=0.5;entryY=1;entryDx=0;entryDy=0;exitX=0.5;exitY=0;exitDx=0;exitDy=0;" edge="1" parent="1" source="-MFiiSWxwE50mNGu5jro-68" target="-MFiiSWxwE50mNGu5jro-74">
          <mxGeometry width="50" height="50" relative="1" as="geometry">
            <mxPoint x="765" y="343" as="sourcePoint" />
            <mxPoint x="764.6" y="300" as="targetPoint" />
            <Array as="points" />
          </mxGeometry>
        </mxCell>
        <mxCell id="-MFiiSWxwE50mNGu5jro-78" value="" style="endArrow=none;html=1;rounded=0;entryX=0.95;entryY=0.712;entryDx=0;entryDy=0;exitX=0.5;exitY=0;exitDx=0;exitDy=0;entryPerimeter=0;" edge="1" parent="1" source="-MFiiSWxwE50mNGu5jro-69" target="-MFiiSWxwE50mNGu5jro-74">
          <mxGeometry width="50" height="50" relative="1" as="geometry">
            <mxPoint x="742" y="356" as="sourcePoint" />
            <mxPoint x="615" y="403" as="targetPoint" />
            <Array as="points" />
          </mxGeometry>
        </mxCell>
        <mxCell id="-MFiiSWxwE50mNGu5jro-79" value="" style="endArrow=none;html=1;rounded=0;entryX=0.8;entryY=1.008;entryDx=0;entryDy=0;entryPerimeter=0;exitX=0;exitY=0.5;exitDx=0;exitDy=0;" edge="1" parent="1" source="-MFiiSWxwE50mNGu5jro-82" target="-MFiiSWxwE50mNGu5jro-55">
          <mxGeometry width="50" height="50" relative="1" as="geometry">
            <mxPoint x="1030" y="320" as="sourcePoint" />
            <mxPoint x="754.6" y="290" as="targetPoint" />
            <Array as="points" />
          </mxGeometry>
        </mxCell>
        <mxCell id="-MFiiSWxwE50mNGu5jro-82" value="d" style="ellipse;whiteSpace=wrap;html=1;aspect=fixed;" vertex="1" parent="1">
          <mxGeometry x="1139" y="307" width="30" height="30" as="geometry" />
        </mxCell>
        <mxCell id="-MFiiSWxwE50mNGu5jro-83" value="Full Time" style="rounded=0;whiteSpace=wrap;html=1;" vertex="1" parent="1">
          <mxGeometry x="1024" y="393" width="120" height="40" as="geometry" />
        </mxCell>
        <mxCell id="-MFiiSWxwE50mNGu5jro-84" value="Part Time" style="rounded=0;whiteSpace=wrap;html=1;" vertex="1" parent="1">
          <mxGeometry x="1164" y="393" width="120" height="40" as="geometry" />
        </mxCell>
        <mxCell id="-MFiiSWxwE50mNGu5jro-85" value="" style="endArrow=none;html=1;rounded=0;entryX=0.5;entryY=0;entryDx=0;entryDy=0;exitX=0;exitY=1;exitDx=0;exitDy=0;" edge="1" parent="1" source="-MFiiSWxwE50mNGu5jro-82" target="-MFiiSWxwE50mNGu5jro-83">
          <mxGeometry width="50" height="50" relative="1" as="geometry">
            <mxPoint x="1139" y="337" as="sourcePoint" />
            <mxPoint x="1012" y="384" as="targetPoint" />
            <Array as="points" />
          </mxGeometry>
        </mxCell>
        <mxCell id="-MFiiSWxwE50mNGu5jro-86" value="" style="endArrow=none;html=1;rounded=0;entryX=1;entryY=1;entryDx=0;entryDy=0;exitX=0.5;exitY=0;exitDx=0;exitDy=0;" edge="1" parent="1" source="-MFiiSWxwE50mNGu5jro-84" target="-MFiiSWxwE50mNGu5jro-82">
          <mxGeometry width="50" height="50" relative="1" as="geometry">
            <mxPoint x="1153" y="343" as="sourcePoint" />
            <mxPoint x="1094" y="403" as="targetPoint" />
            <Array as="points" />
          </mxGeometry>
        </mxCell>
        <mxCell id="-MFiiSWxwE50mNGu5jro-87" value="" style="shape=requiredInterface;html=1;verticalLabelPosition=bottom;sketch=0;rotation=-200;" vertex="1" parent="1">
          <mxGeometry x="665" y="360" width="10" height="20" as="geometry" />
        </mxCell>
        <mxCell id="-MFiiSWxwE50mNGu5jro-88" value="" style="shape=requiredInterface;html=1;verticalLabelPosition=bottom;sketch=0;rotation=90;" vertex="1" parent="1">
          <mxGeometry x="740" y="360" width="10" height="20" as="geometry" />
        </mxCell>
        <mxCell id="-MFiiSWxwE50mNGu5jro-89" value="" style="shape=requiredInterface;html=1;verticalLabelPosition=bottom;sketch=0;rotation=40;" vertex="1" parent="1">
          <mxGeometry x="815" y="360" width="10" height="20" as="geometry" />
        </mxCell>
        <mxCell id="-MFiiSWxwE50mNGu5jro-92" value="" style="shape=requiredInterface;html=1;verticalLabelPosition=bottom;sketch=0;rotation=135;" vertex="1" parent="1">
          <mxGeometry x="1110" y="353" width="10" height="20" as="geometry" />
        </mxCell>
        <mxCell id="-MFiiSWxwE50mNGu5jro-93" value="" style="shape=requiredInterface;html=1;verticalLabelPosition=bottom;sketch=0;rotation=53;" vertex="1" parent="1">
          <mxGeometry x="1190" y="353" width="10" height="20" as="geometry" />
        </mxCell>
        <mxCell id="-MFiiSWxwE50mNGu5jro-97" value="Course" style="rounded=0;whiteSpace=wrap;html=1;" vertex="1" parent="1">
          <mxGeometry x="210" y="561" width="120" height="40" as="geometry" />
        </mxCell>
        <mxCell id="-MFiiSWxwE50mNGu5jro-99" value="Lecture" style="shape=rhombus;html=1;dashed=0;whiteSpace=wrap;perimeter=rhombusPerimeter;" vertex="1" parent="1">
          <mxGeometry x="420" y="460" width="60" height="50" as="geometry" />
        </mxCell>
        <mxCell id="-MFiiSWxwE50mNGu5jro-100" value="" style="endArrow=none;html=1;rounded=0;exitX=1;exitY=0;exitDx=0;exitDy=0;" edge="1" parent="1" source="-MFiiSWxwE50mNGu5jro-61">
          <mxGeometry width="50" height="50" relative="1" as="geometry">
            <mxPoint x="460" y="330" as="sourcePoint" />
            <mxPoint x="510" y="280" as="targetPoint" />
          </mxGeometry>
        </mxCell>
        <mxCell id="-MFiiSWxwE50mNGu5jro-101" value="" style="endArrow=none;html=1;rounded=0;exitX=0.541;exitY=0.014;exitDx=0;exitDy=0;entryX=0;entryY=1;entryDx=0;entryDy=0;exitPerimeter=0;" edge="1" parent="1" source="-MFiiSWxwE50mNGu5jro-105" target="-MFiiSWxwE50mNGu5jro-61">
          <mxGeometry width="50" height="50" relative="1" as="geometry">
            <mxPoint x="310" y="485" as="sourcePoint" />
            <mxPoint x="405" y="392" as="targetPoint" />
          </mxGeometry>
        </mxCell>
        <mxCell id="-MFiiSWxwE50mNGu5jro-102" value="" style="endArrow=none;html=1;rounded=0;exitX=1;exitY=0;exitDx=0;exitDy=0;" edge="1" parent="1" source="-MFiiSWxwE50mNGu5jro-99">
          <mxGeometry width="50" height="50" relative="1" as="geometry">
            <mxPoint x="510" y="526" as="sourcePoint" />
            <mxPoint x="605" y="433" as="targetPoint" />
          </mxGeometry>
        </mxCell>
        <mxCell id="-MFiiSWxwE50mNGu5jro-104" value="" style="endArrow=none;html=1;rounded=0;exitX=0.75;exitY=0;exitDx=0;exitDy=0;entryX=0;entryY=1;entryDx=0;entryDy=0;" edge="1" parent="1" source="-MFiiSWxwE50mNGu5jro-97" target="-MFiiSWxwE50mNGu5jro-99">
          <mxGeometry width="50" height="50" relative="1" as="geometry">
            <mxPoint x="330" y="540" as="sourcePoint" />
            <mxPoint x="470" y="500" as="targetPoint" />
          </mxGeometry>
        </mxCell>
        <mxCell id="-MFiiSWxwE50mNGu5jro-105" value="Activity" style="rounded=0;whiteSpace=wrap;html=1;" vertex="1" parent="1">
          <mxGeometry x="120" y="393" width="120" height="40" as="geometry" />
        </mxCell>
        <mxCell id="-MFiiSWxwE50mNGu5jro-106" value="Other" style="rounded=0;whiteSpace=wrap;html=1;" vertex="1" parent="1">
          <mxGeometry x="18" y="561" width="120" height="40" as="geometry" />
        </mxCell>
        <mxCell id="-MFiiSWxwE50mNGu5jro-107" value="d" style="ellipse;whiteSpace=wrap;html=1;aspect=fixed;" vertex="1" parent="1">
          <mxGeometry x="165" y="460" width="30" height="30" as="geometry" />
        </mxCell>
        <mxCell id="-MFiiSWxwE50mNGu5jro-108" value="" style="endArrow=none;html=1;rounded=0;entryX=0.5;entryY=1;entryDx=0;entryDy=0;" edge="1" parent="1">
          <mxGeometry width="50" height="50" relative="1" as="geometry">
            <mxPoint x="180" y="460" as="sourcePoint" />
            <mxPoint x="179.70000000000005" y="433" as="targetPoint" />
            <Array as="points" />
          </mxGeometry>
        </mxCell>
        <mxCell id="-MFiiSWxwE50mNGu5jro-109" value="" style="endArrow=none;html=1;rounded=0;entryX=0.783;entryY=0.015;entryDx=0;entryDy=0;exitX=0;exitY=1;exitDx=0;exitDy=0;entryPerimeter=0;" edge="1" parent="1" source="-MFiiSWxwE50mNGu5jro-107" target="-MFiiSWxwE50mNGu5jro-106">
          <mxGeometry width="50" height="50" relative="1" as="geometry">
            <mxPoint x="165" y="473" as="sourcePoint" />
            <mxPoint x="38" y="520" as="targetPoint" />
            <Array as="points" />
          </mxGeometry>
        </mxCell>
        <mxCell id="-MFiiSWxwE50mNGu5jro-110" value="" style="shape=requiredInterface;html=1;verticalLabelPosition=bottom;sketch=0;rotation=135;" vertex="1" parent="1">
          <mxGeometry x="136" y="512" width="10" height="20" as="geometry" />
        </mxCell>
        <mxCell id="-MFiiSWxwE50mNGu5jro-111" value="" style="endArrow=none;html=1;rounded=0;entryX=1;entryY=1;entryDx=0;entryDy=0;exitX=0.301;exitY=-0.029;exitDx=0;exitDy=0;exitPerimeter=0;" edge="1" parent="1" source="-MFiiSWxwE50mNGu5jro-97" target="-MFiiSWxwE50mNGu5jro-107">
          <mxGeometry width="50" height="50" relative="1" as="geometry">
            <mxPoint x="321" y="524.5" as="sourcePoint" />
            <mxPoint x="195" y="475.5" as="targetPoint" />
            <Array as="points" />
          </mxGeometry>
        </mxCell>
        <mxCell id="-MFiiSWxwE50mNGu5jro-112" value="" style="shape=requiredInterface;html=1;verticalLabelPosition=bottom;sketch=0;rotation=40;" vertex="1" parent="1">
          <mxGeometry x="214" y="513" width="10" height="20" as="geometry" />
        </mxCell>
        <mxCell id="-MFiiSWxwE50mNGu5jro-114" value="&lt;u&gt;ID&lt;/u&gt;" style="ellipse;whiteSpace=wrap;html=1;" vertex="1" parent="1">
          <mxGeometry x="31" y="337" width="60" height="30" as="geometry" />
        </mxCell>
        <mxCell id="-MFiiSWxwE50mNGu5jro-115" value="" style="endArrow=none;html=1;rounded=0;entryX=0.5;entryY=1;entryDx=0;entryDy=0;exitX=0.16;exitY=0.015;exitDx=0;exitDy=0;exitPerimeter=0;" edge="1" parent="1" target="-MFiiSWxwE50mNGu5jro-114" source="-MFiiSWxwE50mNGu5jro-105">
          <mxGeometry width="50" height="50" relative="1" as="geometry">
            <mxPoint x="30" y="407" as="sourcePoint" />
            <mxPoint x="211" y="387" as="targetPoint" />
          </mxGeometry>
        </mxCell>
        <mxCell id="-MFiiSWxwE50mNGu5jro-116" value="Name" style="ellipse;whiteSpace=wrap;html=1;" vertex="1" parent="1">
          <mxGeometry x="110" y="333" width="60" height="30" as="geometry" />
        </mxCell>
        <mxCell id="-MFiiSWxwE50mNGu5jro-117" value="" style="endArrow=none;html=1;rounded=0;entryX=0.5;entryY=1;entryDx=0;entryDy=0;exitX=0.357;exitY=0.01;exitDx=0;exitDy=0;exitPerimeter=0;" edge="1" parent="1" source="-MFiiSWxwE50mNGu5jro-105" target="-MFiiSWxwE50mNGu5jro-116">
          <mxGeometry width="50" height="50" relative="1" as="geometry">
            <mxPoint x="149" y="402" as="sourcePoint" />
            <mxPoint x="71" y="377" as="targetPoint" />
          </mxGeometry>
        </mxCell>
        <mxCell id="-MFiiSWxwE50mNGu5jro-118" value="Start time" style="ellipse;whiteSpace=wrap;html=1;" vertex="1" parent="1">
          <mxGeometry x="30" y="393" width="60" height="30" as="geometry" />
        </mxCell>
        <mxCell id="-MFiiSWxwE50mNGu5jro-119" value="" style="endArrow=none;html=1;rounded=0;entryX=1;entryY=0.5;entryDx=0;entryDy=0;exitX=0;exitY=0.5;exitDx=0;exitDy=0;" edge="1" parent="1" source="-MFiiSWxwE50mNGu5jro-105" target="-MFiiSWxwE50mNGu5jro-118">
          <mxGeometry width="50" height="50" relative="1" as="geometry">
            <mxPoint x="149" y="404" as="sourcePoint" />
            <mxPoint x="71" y="377" as="targetPoint" />
          </mxGeometry>
        </mxCell>
        <mxCell id="-MFiiSWxwE50mNGu5jro-120" value="Finish Time" style="ellipse;whiteSpace=wrap;html=1;" vertex="1" parent="1">
          <mxGeometry x="30" y="440" width="60" height="30" as="geometry" />
        </mxCell>
        <mxCell id="-MFiiSWxwE50mNGu5jro-121" value="" style="endArrow=none;html=1;rounded=0;entryX=1;entryY=0;entryDx=0;entryDy=0;exitX=0.006;exitY=0.9;exitDx=0;exitDy=0;exitPerimeter=0;" edge="1" parent="1" source="-MFiiSWxwE50mNGu5jro-105" target="-MFiiSWxwE50mNGu5jro-120">
          <mxGeometry width="50" height="50" relative="1" as="geometry">
            <mxPoint x="130" y="423" as="sourcePoint" />
            <mxPoint x="100" y="418" as="targetPoint" />
          </mxGeometry>
        </mxCell>
        <mxCell id="-MFiiSWxwE50mNGu5jro-124" value="Day of week" style="ellipse;whiteSpace=wrap;html=1;" vertex="1" parent="1">
          <mxGeometry x="50" y="480" width="60" height="30" as="geometry" />
        </mxCell>
        <mxCell id="-MFiiSWxwE50mNGu5jro-125" value="" style="endArrow=none;html=1;rounded=0;entryX=0.793;entryY=0.056;entryDx=0;entryDy=0;exitX=0.25;exitY=1;exitDx=0;exitDy=0;entryPerimeter=0;" edge="1" parent="1" source="-MFiiSWxwE50mNGu5jro-105" target="-MFiiSWxwE50mNGu5jro-124">
          <mxGeometry width="50" height="50" relative="1" as="geometry">
            <mxPoint x="131" y="439" as="sourcePoint" />
            <mxPoint x="91" y="455" as="targetPoint" />
          </mxGeometry>
        </mxCell>
        <mxCell id="-MFiiSWxwE50mNGu5jro-126" value="Age" style="ellipse;whiteSpace=wrap;html=1;" vertex="1" parent="1">
          <mxGeometry x="625" y="10" width="60" height="30" as="geometry" />
        </mxCell>
        <mxCell id="-MFiiSWxwE50mNGu5jro-127" value="" style="endArrow=none;html=1;rounded=0;entryX=0.5;entryY=1;entryDx=0;entryDy=0;exitX=0.661;exitY=-0.001;exitDx=0;exitDy=0;exitPerimeter=0;" edge="1" parent="1" target="-MFiiSWxwE50mNGu5jro-126">
          <mxGeometry width="50" height="50" relative="1" as="geometry">
            <mxPoint x="624" y="80" as="sourcePoint" />
            <mxPoint x="805" y="60" as="targetPoint" />
          </mxGeometry>
        </mxCell>
        <mxCell id="-MFiiSWxwE50mNGu5jro-128" value="Email Address" style="ellipse;whiteSpace=wrap;html=1;" vertex="1" parent="1">
          <mxGeometry x="520" y="10" width="60" height="30" as="geometry" />
        </mxCell>
        <mxCell id="-MFiiSWxwE50mNGu5jro-129" value="" style="endArrow=none;html=1;rounded=0;entryX=0.5;entryY=1;entryDx=0;entryDy=0;exitX=0.661;exitY=-0.001;exitDx=0;exitDy=0;exitPerimeter=0;" edge="1" parent="1" target="-MFiiSWxwE50mNGu5jro-128">
          <mxGeometry width="50" height="50" relative="1" as="geometry">
            <mxPoint x="574.5" y="80" as="sourcePoint" />
            <mxPoint x="755.5" y="60" as="targetPoint" />
          </mxGeometry>
        </mxCell>
        <mxCell id="-MFiiSWxwE50mNGu5jro-130" value="Name" style="ellipse;whiteSpace=wrap;html=1;" vertex="1" parent="1">
          <mxGeometry x="130" y="670" width="60" height="30" as="geometry" />
        </mxCell>
        <mxCell id="-MFiiSWxwE50mNGu5jro-131" value="" style="endArrow=none;html=1;rounded=0;exitX=0.25;exitY=1;exitDx=0;exitDy=0;entryX=0.5;entryY=0;entryDx=0;entryDy=0;" edge="1" parent="1" source="-MFiiSWxwE50mNGu5jro-97" target="-MFiiSWxwE50mNGu5jro-130">
          <mxGeometry width="50" height="50" relative="1" as="geometry">
            <mxPoint x="130" y="423" as="sourcePoint" />
            <mxPoint x="190" y="660" as="targetPoint" />
          </mxGeometry>
        </mxCell>
        <mxCell id="-MFiiSWxwE50mNGu5jro-134" value="&lt;u&gt;ID&lt;/u&gt;" style="ellipse;whiteSpace=wrap;html=1;" vertex="1" parent="1">
          <mxGeometry x="245" y="670" width="60" height="30" as="geometry" />
        </mxCell>
        <mxCell id="-MFiiSWxwE50mNGu5jro-135" value="" style="endArrow=none;html=1;rounded=0;entryX=0.5;entryY=0;entryDx=0;entryDy=0;exitX=0.75;exitY=1;exitDx=0;exitDy=0;" edge="1" parent="1" target="-MFiiSWxwE50mNGu5jro-134" source="-MFiiSWxwE50mNGu5jro-97">
          <mxGeometry width="50" height="50" relative="1" as="geometry">
            <mxPoint x="474" y="713.5" as="sourcePoint" />
            <mxPoint x="546" y="706.5" as="targetPoint" />
          </mxGeometry>
        </mxCell>
        <mxCell id="-MFiiSWxwE50mNGu5jro-136" value="Materials" style="rounded=0;whiteSpace=wrap;html=1;" vertex="1" parent="1">
          <mxGeometry x="580" y="714" width="120" height="40" as="geometry" />
        </mxCell>
        <mxCell id="-MFiiSWxwE50mNGu5jro-137" value="Uses" style="shape=rhombus;html=1;dashed=0;whiteSpace=wrap;perimeter=rhombusPerimeter;" vertex="1" parent="1">
          <mxGeometry x="440" y="590" width="60" height="50" as="geometry" />
        </mxCell>
        <mxCell id="-MFiiSWxwE50mNGu5jro-138" value="" style="endArrow=none;html=1;rounded=0;exitX=1;exitY=1;exitDx=0;exitDy=0;entryX=0.5;entryY=0;entryDx=0;entryDy=0;" edge="1" parent="1" source="-MFiiSWxwE50mNGu5jro-137" target="-MFiiSWxwE50mNGu5jro-136">
          <mxGeometry width="50" height="50" relative="1" as="geometry">
            <mxPoint x="590" y="643" as="sourcePoint" />
            <mxPoint x="685" y="550" as="targetPoint" />
          </mxGeometry>
        </mxCell>
        <mxCell id="-MFiiSWxwE50mNGu5jro-139" value="" style="endArrow=none;html=1;rounded=0;exitX=1;exitY=0.5;exitDx=0;exitDy=0;entryX=0;entryY=0;entryDx=0;entryDy=0;" edge="1" parent="1" target="-MFiiSWxwE50mNGu5jro-137" source="-MFiiSWxwE50mNGu5jro-97">
          <mxGeometry width="50" height="50" relative="1" as="geometry">
            <mxPoint x="380" y="678" as="sourcePoint" />
            <mxPoint x="470" y="610" as="targetPoint" />
          </mxGeometry>
        </mxCell>
        <mxCell id="-MFiiSWxwE50mNGu5jro-140" value="Expense" style="rounded=0;whiteSpace=wrap;html=1;" vertex="1" parent="1">
          <mxGeometry x="835" y="503" width="120" height="40" as="geometry" />
        </mxCell>
        <mxCell id="-MFiiSWxwE50mNGu5jro-141" value="Name" style="ellipse;whiteSpace=wrap;html=1;" vertex="1" parent="1">
          <mxGeometry x="730" y="30" width="60" height="30" as="geometry" />
        </mxCell>
        <mxCell id="-MFiiSWxwE50mNGu5jro-142" value="" style="endArrow=none;html=1;rounded=0;entryX=0.5;entryY=1;entryDx=0;entryDy=0;exitX=1;exitY=0.25;exitDx=0;exitDy=0;" edge="1" parent="1" source="-MFiiSWxwE50mNGu5jro-47" target="-MFiiSWxwE50mNGu5jro-141">
          <mxGeometry width="50" height="50" relative="1" as="geometry">
            <mxPoint x="634" y="90" as="sourcePoint" />
            <mxPoint x="665" y="50" as="targetPoint" />
          </mxGeometry>
        </mxCell>
        <mxCell id="-MFiiSWxwE50mNGu5jro-143" value="Rent" style="rounded=0;whiteSpace=wrap;html=1;" vertex="1" parent="1">
          <mxGeometry x="750" y="714" width="120" height="40" as="geometry" />
        </mxCell>
        <mxCell id="-MFiiSWxwE50mNGu5jro-144" value="Cleaning" style="rounded=0;whiteSpace=wrap;html=1;" vertex="1" parent="1">
          <mxGeometry x="930" y="714" width="120" height="40" as="geometry" />
        </mxCell>
        <mxCell id="-MFiiSWxwE50mNGu5jro-145" value="U" style="ellipse;whiteSpace=wrap;html=1;aspect=fixed;" vertex="1" parent="1">
          <mxGeometry x="880" y="601" width="30" height="30" as="geometry" />
        </mxCell>
        <mxCell id="-MFiiSWxwE50mNGu5jro-147" value="" style="endArrow=none;html=1;rounded=0;entryX=0;entryY=1;entryDx=0;entryDy=0;exitX=0.5;exitY=0;exitDx=0;exitDy=0;" edge="1" parent="1" source="-MFiiSWxwE50mNGu5jro-143" target="-MFiiSWxwE50mNGu5jro-145">
          <mxGeometry width="50" height="50" relative="1" as="geometry">
            <mxPoint x="810" y="710" as="sourcePoint" />
            <mxPoint x="865" y="640" as="targetPoint" />
          </mxGeometry>
        </mxCell>
        <mxCell id="-MFiiSWxwE50mNGu5jro-148" value="" style="endArrow=none;html=1;rounded=0;entryX=0.5;entryY=0;entryDx=0;entryDy=0;exitX=1;exitY=1;exitDx=0;exitDy=0;" edge="1" parent="1" source="-MFiiSWxwE50mNGu5jro-145" target="-MFiiSWxwE50mNGu5jro-144">
          <mxGeometry width="50" height="50" relative="1" as="geometry">
            <mxPoint x="960" y="639" as="sourcePoint" />
            <mxPoint x="1040" y="590" as="targetPoint" />
          </mxGeometry>
        </mxCell>
        <mxCell id="-MFiiSWxwE50mNGu5jro-149" value="" style="endArrow=none;html=1;rounded=0;entryX=0.5;entryY=1;entryDx=0;entryDy=0;" edge="1" parent="1" target="-MFiiSWxwE50mNGu5jro-140">
          <mxGeometry width="50" height="50" relative="1" as="geometry">
            <mxPoint x="895" y="600" as="sourcePoint" />
            <mxPoint x="898" y="543" as="targetPoint" />
            <Array as="points" />
          </mxGeometry>
        </mxCell>
        <mxCell id="-MFiiSWxwE50mNGu5jro-150" value="" style="shape=requiredInterface;html=1;verticalLabelPosition=bottom;sketch=0;rotation=-90;" vertex="1" parent="1">
          <mxGeometry x="890" y="561" width="10" height="20" as="geometry" />
        </mxCell>
        <mxCell id="-MFiiSWxwE50mNGu5jro-151" value="" style="endArrow=none;html=1;rounded=0;exitX=0.659;exitY=-0.002;exitDx=0;exitDy=0;exitPerimeter=0;entryX=0.039;entryY=0.6;entryDx=0;entryDy=0;entryPerimeter=0;" edge="1" parent="1" source="-MFiiSWxwE50mNGu5jro-136" target="-MFiiSWxwE50mNGu5jro-145">
          <mxGeometry width="50" height="50" relative="1" as="geometry">
            <mxPoint x="660" y="710" as="sourcePoint" />
            <mxPoint x="880" y="610" as="targetPoint" />
          </mxGeometry>
        </mxCell>
        <mxCell id="-MFiiSWxwE50mNGu5jro-155" value="Salaries" style="rounded=0;whiteSpace=wrap;html=1;" vertex="1" parent="1">
          <mxGeometry x="1080" y="714" width="120" height="40" as="geometry" />
        </mxCell>
        <mxCell id="-MFiiSWxwE50mNGu5jro-156" value="" style="endArrow=none;html=1;rounded=0;entryX=0.5;entryY=0;entryDx=0;entryDy=0;exitX=1;exitY=0.5;exitDx=0;exitDy=0;" edge="1" parent="1" source="-MFiiSWxwE50mNGu5jro-145">
          <mxGeometry width="50" height="50" relative="1" as="geometry">
            <mxPoint x="1070" y="627" as="sourcePoint" />
            <mxPoint x="1154" y="714" as="targetPoint" />
          </mxGeometry>
        </mxCell>
        <mxCell id="-MFiiSWxwE50mNGu5jro-157" value="&lt;u&gt;ID&lt;/u&gt;" style="ellipse;whiteSpace=wrap;html=1;" vertex="1" parent="1">
          <mxGeometry x="705" y="490" width="60" height="30" as="geometry" />
        </mxCell>
        <mxCell id="-MFiiSWxwE50mNGu5jro-160" value="" style="endArrow=none;html=1;rounded=0;entryX=0;entryY=0.25;entryDx=0;entryDy=0;exitX=1;exitY=0.5;exitDx=0;exitDy=0;" edge="1" parent="1" source="-MFiiSWxwE50mNGu5jro-157" target="-MFiiSWxwE50mNGu5jro-140">
          <mxGeometry width="50" height="50" relative="1" as="geometry">
            <mxPoint x="760" y="570" as="sourcePoint" />
            <mxPoint x="810" y="520" as="targetPoint" />
          </mxGeometry>
        </mxCell>
        <mxCell id="-MFiiSWxwE50mNGu5jro-161" value="Date" style="ellipse;whiteSpace=wrap;html=1;" vertex="1" parent="1">
          <mxGeometry x="705" y="533" width="60" height="30" as="geometry" />
        </mxCell>
        <mxCell id="-MFiiSWxwE50mNGu5jro-162" value="" style="endArrow=none;html=1;rounded=0;entryX=-0.041;entryY=0.838;entryDx=0;entryDy=0;exitX=1;exitY=0.5;exitDx=0;exitDy=0;entryPerimeter=0;" edge="1" parent="1" source="-MFiiSWxwE50mNGu5jro-161" target="-MFiiSWxwE50mNGu5jro-140">
          <mxGeometry width="50" height="50" relative="1" as="geometry">
            <mxPoint x="775" y="515" as="sourcePoint" />
            <mxPoint x="845" y="523" as="targetPoint" />
          </mxGeometry>
        </mxCell>
      </root>
    </mxGraphModel>
  </diagram>
</mxfile>
